RobotoSerifDisplay-SuperWidth300.ufo
<glyph name="zero" format="2">
  <advance width="422.8"/>
  <unicode hex="0030"/>
  <outline>
    <contour>
      <point x="211.4" y="-10.0" type="curve" smooth="yes"/>
      <point x="331.475" y="-10.0"/>
      <point x="416.405" y="109.51009523809523"/>
      <point x="416.405" y="304.2" type="curve" smooth="yes"/>
      <point x="416.405" y="499.62380952382"/>
      <point x="331.475" y="619.0"/>
      <point x="211.4" y="619.0" type="curve" smooth="yes"/>
      <point x="91.325" y="619.0"/>
      <point x="6.395000000000003" y="499.62380952382"/>
      <point x="6.395000000000003" y="304.2" type="curve" smooth="yes"/>
      <point x="6.395000000000003" y="109.51009523809523"/>
      <point x="91.325" y="-10.0"/>
    </contour>
    <contour>
      <point x="211.4" y="36.0" type="curve" smooth="yes"/>
      <point x="196.07999999999998" y="36.0"/>
      <point x="194.85999999999996" y="85.19999999999999"/>
      <point x="194.85999999999996" y="304.2" type="curve" smooth="yes"/>
      <point x="194.85999999999996" y="524.8229473684"/>
      <point x="196.07999999999998" y="573.0"/>
      <point x="211.4" y="573.0" type="curve" smooth="yes"/>
      <point x="226.72000000000003" y="573.0"/>
      <point x="227.94" y="524.8229473684"/>
      <point x="227.94" y="304.2" type="curve" smooth="yes"/>
      <point x="227.94" y="85.19999999999999"/>
      <point x="226.72000000000003" y="36.0"/>
    </contour>
  </outline>
</glyph>
<glyph name="A" format="2">
  <advance width="560"/>
  <unicode hex="0041"/>
  <outline>
    <contour>
      <point x="105.31" y="273.2" type="line"/>
      <point x="92.50999999999999" y="226.4" type="line"/>
      <point x="290.03" y="226.4" type="line"/>
      <point x="289.03000000000003" y="273.2" type="line"/>
    </contour>
    <contour>
      <point x="179.35" y="572.6" type="line"/>
      <point x="304.13" y="49.8" type="line"/>
      <point x="304.13" y="42.800000000000004"/>
      <point x="295.585" y="39.6"/>
      <point x="285.855" y="39.6" type="curve" smooth="yes"/>
      <point x="274.40000000000003" y="39.6" type="line"/>
      <point x="274.40000000000003" y="0.0" type="line"/>
      <point x="551.4649999999999" y="0.0" type="line"/>
      <point x="551.4649999999999" y="39.6" type="line"/>
      <point x="548.21" y="39.6" type="line"/>
      <point x="534.145" y="39.6"/>
      <point x="528.4749999999999" y="45.2"/>
      <point x="522.92" y="68.80000000000001" type="curve" smooth="yes"/>
      <point x="356.855" y="710.0" type="line"/>
      <point x="203.155" y="710.0" type="line"/>
      <point x="38.05500000000001" y="78.6" type="line" smooth="yes"/>
      <point x="31.845" y="49.400000000000006"/>
      <point x="28.36" y="39.6"/>
      <point x="11.844999999999999" y="39.6" type="curve" smooth="yes"/>
      <point x="7.739999999999999" y="39.6" type="line"/>
      <point x="7.739999999999999" y="0.0" type="line"/>
      <point x="116.925" y="0.0" type="line"/>
      <point x="116.925" y="39.6" type="line"/>
      <point x="110.405" y="39.6" type="line" smooth="yes"/>
      <point x="91.255" y="39.6"/>
      <point x="77.87" y="44.2"/>
      <point x="77.87" y="53.8" type="curve"/>
      <point x="194.10500000000002" y="552.2" type="line"/>
    </contour>
  </outline>
</glyph>
<glyph name="E" format="2">
  <advance width="492"/>
  <unicode hex="0045"/>
  <outline>
    <contour>
      <point x="477.23" y="213.4" type="line"/>
      <point x="439.405" y="213.4" type="line"/>
      <point x="418.865" y="94.80000000000001" type="line" smooth="yes"/>
      <point x="414.21999999999997" y="58.6"/>
      <point x="395.255" y="48.6"/>
      <point x="338.53499999999997" y="48.6" type="curve" smooth="yes"/>
      <point x="266.69" y="48.6" type="line"/>
      <point x="266.69" y="661.4" type="line"/>
      <point x="348.24" y="661.4" type="line" smooth="yes"/>
      <point x="381.5" y="661.4"/>
      <point x="404.755" y="651.4"/>
      <point x="410.15999999999997" y="615.8" type="curve" smooth="yes"/>
      <point x="425.305" y="521.6" type="line"/>
      <point x="461.78499999999997" y="521.6" type="line"/>
      <point x="461.78499999999997" y="710.0" type="line"/>
      <point x="14.825" y="710.0" type="line"/>
      <point x="14.825" y="670.4" type="line"/>
      <point x="23.22" y="670.4" type="line" smooth="yes"/>
      <point x="39.894999999999996" y="670.4"/>
      <point x="51.535000000000004" y="663.4"/>
      <point x="51.535000000000004" y="634.4" type="curve" smooth="yes"/>
      <point x="51.535000000000004" y="75.6" type="line" smooth="yes"/>
      <point x="51.535000000000004" y="46.6"/>
      <point x="39.849999999999994" y="39.6"/>
      <point x="23.22" y="39.6" type="curve" smooth="yes"/>
      <point x="14.825" y="39.6" type="line"/>
      <point x="14.825" y="0.0" type="line"/>
      <point x="477.23" y="0.0" type="line"/>
    </contour>
    <contour>
      <point x="243.91999999999996" y="384.4" type="curve"/>
      <point x="243.91999999999996" y="342.4" type="line"/>
      <point x="315.3453781487805" y="338.0001674583775"/>
      <point x="364.747467664792" y="328.80739692786227"/>
      <point x="412.895" y="312.2" type="curve"/>
      <point x="412.895" y="414.2" type="line"/>
      <point x="364.75234572142955" y="398.7938607154505"/>
      <point x="315.34034912891707" y="390.399510463061"/>
    </contour>
  </outline>
</glyph>
<glyph name="M" format="2">
  <advance width="723"/>
  <unicode hex="004D"/>
  <anchor x="285" y="0.0" name="bottom"/>
  <outline>
    <contour>
      <point x="14.825" y="0.0" type="line"/>
      <point x="132.82" y="0.0" type="line"/>
      <point x="132.82" y="39.6" type="line"/>
      <point x="127.805" y="39.6" type="line" smooth="yes"/>
      <point x="113.015" y="39.6"/>
      <point x="96.5" y="43.2"/>
      <point x="96.5" y="54.400000000000006" type="curve" smooth="yes"/>
      <point x="96.5" y="684.4" type="line"/>
      <point x="85.805" y="690.4" type="line"/>
      <point x="225.49" y="-0.3999999999999999" type="line"/>
      <point x="328.98" y="-0.3999999999999999" type="line"/>
      <point x="467.515" y="690.0" type="line"/>
      <point x="456.625" y="692.0" type="line"/>
      <point x="456.625" y="49.6" type="line" smooth="yes"/>
      <point x="456.625" y="42.6"/>
      <point x="441.535" y="39.6"/>
      <point x="425.665" y="39.6" type="curve" smooth="yes"/>
      <point x="419.915" y="39.6" type="line"/>
      <point x="419.915" y="0.0" type="line"/>
      <point x="707.685" y="0.0" type="line"/>
      <point x="707.685" y="39.6" type="line"/>
      <point x="700.095" y="39.6" type="line"/>
      <point x="682.66" y="39.6"/>
      <point x="671.78" y="45.8"/>
      <point x="671.78" y="71.6" type="curve" smooth="yes"/>
      <point x="671.78" y="638.4" type="line" smooth="yes"/>
      <point x="671.78" y="664.2"/>
      <point x="682.615" y="670.4"/>
      <point x="700.095" y="670.4" type="curve" smooth="yes"/>
      <point x="707.685" y="670.4" type="line"/>
      <point x="707.685" y="710.0" type="line"/>
      <point x="441" y="710.0" type="line"/>
      <point x="348.955" y="230.20000000000002" type="line"/>
      <point x="366.655" y="230.20000000000002" type="line"/>
      <point x="302.21500000000003" y="710.0" type="line"/>
      <point x="14.825" y="710.0" type="line"/>
      <point x="14.825" y="670.4" type="line"/>
      <point x="22.575" y="670.4" type="line" smooth="yes"/>
      <point x="39.849999999999994" y="670.4"/>
      <point x="51.535000000000004" y="664.2"/>
      <point x="51.535000000000004" y="638.4" type="curve" smooth="yes"/>
      <point x="51.535000000000004" y="77.2" type="line" smooth="yes"/>
      <point x="51.535000000000004" y="48.0"/>
      <point x="39.849999999999994" y="39.6"/>
      <point x="22.575" y="39.6" type="curve"/>
      <point x="14.825" y="39.6" type="line"/>
    </contour>
  </outline>
</glyph>
<glyph name="R" format="2">
  <advance width="602"/>
  <unicode hex="0052"/>
  <outline>
    <contour>
      <point x="274.26" y="327.4" type="line"/>
      <point x="471.54499999999996" y="362.4" type="line"/>
      <point x="558.305" y="68.2" type="line" smooth="yes"/>
      <point x="565.9649999999999" y="41.6"/>
      <point x="576.97" y="39.6"/>
      <point x="584.515" y="39.6" type="curve" smooth="yes"/>
      <point x="587.16" y="39.6" type="line"/>
      <point x="587.16" y="0.0" type="line"/>
      <point x="354.5" y="0.0" type="line"/>
    </contour>
    <contour>
      <point x="14.825" y="0.0" type="line"/>
      <point x="14.825" y="39.6" type="line"/>
      <point x="23.22" y="39.6" type="line" smooth="yes"/>
      <point x="39.849999999999994" y="39.6"/>
      <point x="51.535000000000004" y="45.8"/>
      <point x="51.535000000000004" y="71.6" type="curve" smooth="yes"/>
      <point x="51.535000000000004" y="638.4" type="line" smooth="yes"/>
      <point x="51.535000000000004" y="664.2"/>
      <point x="39.894999999999996" y="670.4"/>
      <point x="23.22" y="670.4" type="curve" smooth="yes"/>
      <point x="14.825" y="670.4" type="line"/>
      <point x="14.825" y="710.0" type="line"/>
      <point x="341.79999999999995" y="710.0" type="line" smooth="yes"/>
      <point x="485.10499999999996" y="710.0"/>
      <point x="560.95" y="633.2"/>
      <point x="560.95" y="516.4" type="curve" smooth="yes"/>
      <point x="560.95" y="424.2"/>
      <point x="516.535" y="358.8"/>
      <point x="436.09000000000003" y="330.0" type="curve" smooth="yes"/>
      <point x="402.21000000000004" y="319.0"/>
      <point x="362.845" y="313.6"/>
      <point x="318.385" y="313.6" type="curve" smooth="yes"/>
      <point x="251.59" y="313.6" type="line"/>
      <point x="251.59" y="360.2" type="line"/>
      <point x="290.74" y="360.2" type="line" smooth="yes"/>
      <point x="325.15" y="360.2"/>
      <point x="341.24" y="404.2"/>
      <point x="341.24" y="518.8" type="curve" smooth="yes"/>
      <point x="341.24" y="622.2"/>
      <point x="325.84" y="663.0"/>
      <point x="295.19" y="663.0" type="curve" smooth="yes"/>
      <point x="266.69" y="663.0" type="line"/>
      <point x="266.69" y="49.6" type="line"/>
      <point x="266.69" y="42.6"/>
      <point x="276.83500000000004" y="39.6"/>
      <point x="289.52" y="39.6" type="curve" smooth="yes"/>
      <point x="296.225" y="39.6" type="line"/>
      <point x="296.225" y="0.0" type="line"/>
    </contour>
  </outline>
</glyph>
<glyph name="U" format="2">
  <advance width="547.545"/>
  <unicode hex="0055"/>
  <outline>
    <contour>
      <point x="264.885" y="241.0" type="curve" smooth="yes"/>
      <point x="264.885" y="660.4" type="line" smooth="yes"/>
      <point x="264.885" y="667.4"/>
      <point x="281.17" y="670.4"/>
      <point x="293.545" y="670.4" type="curve" smooth="yes"/>
      <point x="300.445" y="670.4" type="line"/>
      <point x="300.445" y="710.0" type="line"/>
      <point x="13.720000000000002" y="710.0" type="line"/>
      <point x="13.720000000000002" y="670.4" type="line"/>
      <point x="22.115000000000002" y="670.4" type="line" smooth="yes"/>
      <point x="38.894999999999996" y="670.4"/>
      <point x="49.625" y="664.1933333333333"/>
      <point x="49.625" y="638.4" type="curve" smooth="yes"/>
      <point x="49.625" y="272.0" type="line" smooth="yes"/>
      <point x="49.625" y="75.8"/>
      <point x="142.9580769230769" y="-10.0"/>
      <point x="292.995" y="-10.0" type="curve" smooth="yes"/>
      <point x="408.9797547169811" y="-10.0"/>
      <point x="497.115" y="73.0"/>
      <point x="497.115" y="273.6" type="curve" smooth="yes"/>
      <point x="497.115" y="633.2" type="line" smooth="yes"/>
      <point x="497.115" y="662.4"/>
      <point x="508.79999999999995" y="670.4"/>
      <point x="525.97" y="670.4" type="curve" smooth="yes"/>
      <point x="533.825" y="670.4" type="line"/>
      <point x="533.825" y="710.0" type="line"/>
      <point x="416.91" y="710.0" type="line"/>
      <point x="416.91" y="670.4" type="line"/>
      <point x="421.085" y="670.4" type="line" smooth="yes"/>
      <point x="432.495" y="670.4"/>
      <point x="450.895" y="664.2"/>
      <point x="450.895" y="649.4" type="curve" smooth="yes"/>
      <point x="450.895" y="273.6" type="line" smooth="yes"/>
      <point x="450.895" y="138.39999999999998"/>
      <point x="412.35533834586465" y="76.0"/>
      <point x="354.405" y="76.0" type="curve" smooth="yes"/>
      <point x="300.09072" y="76.0"/>
      <point x="264.885" y="118.54186335403728"/>
    </contour>
  </outline>
</glyph>
<glyph name="bracketleft" format="2">
  <advance width="243.71499999999997"/>
  <unicode hex="005B"/>
  <outline>
    <contour>
      <point x="29.120000000000005" y="750.0" type="line"/>
      <point x="29.120000000000005" y="-130.0" type="line"/>
      <point x="149.675" y="-130.0" type="line"/>
      <point x="149.675" y="750.0" type="line"/>
    </contour>
    <contour>
      <point x="223.67000000000002" y="750.0" type="line"/>
      <point x="60.595" y="750.0" type="line"/>
      <point x="60.595" y="710.4" type="line"/>
      <point x="223.67000000000002" y="710.4" type="line"/>
    </contour>
    <contour>
      <point x="223.67000000000002" y="-90.4" type="line"/>
      <point x="60.595" y="-90.4" type="line"/>
      <point x="60.595" y="-130.0" type="line"/>
      <point x="223.67000000000002" y="-130.0" type="line"/>
    </contour>
  </outline>
</glyph>
<glyph name="underscore" format="2">
  <advance width="361.4"/>
  <unicode hex="005F"/>
  <outline>
    <contour>
      <point x="-3.6" y="-71.0" type="line"/>
      <point x="-3.6" y="-164.2" type="line"/>
      <point x="365.7" y="-164.2" type="line"/>
      <point x="365.7" y="-71.0" type="line"/>
    </contour>
  </outline>
</glyph>
<glyph name="k" format="2">
  <advance width="547"/>
  <unicode hex="006B"/>
  <outline>
    <contour>
      <point x="537.0649999999999" y="0.0" type="line"/>
      <point x="537.0649999999999" y="37.2" type="line"/>
      <point x="535.615" y="37.2" type="line"/>
      <point x="521.0799999999999" y="37.2"/>
      <point x="512" y="48"/>
      <point x="505.41499999999996" y="69.2" type="curve" smooth="yes"/>
      <point x="393" y="406" type="line"/>
      <point x="349" y="332" type="line"/>
      <point x="442.28999999999996" y="449.4" type="line" smooth="yes"/>
      <point x="464" y="476"/>
      <point x="475.09" y="488.0"/>
      <point x="502.91999999999996" y="488.0" type="curve"/>
      <point x="504.265" y="488.0" type="line"/>
      <point x="504.265" y="522.8" type="line"/>
      <point x="348.32000000000005" y="522.8" type="line"/>
      <point x="348.32000000000005" y="488.0" type="line"/>
      <point x="353.68" y="488.0" type="line" smooth="yes"/>
      <point x="376.635" y="488.0"/>
      <point x="398.44" y="484.6"/>
      <point x="398.44" y="470.4" type="curve"/>
      <point x="239.84999999999997" y="276.6" type="line"/>
      <point x="239.84999999999997" y="259.6" type="line"/>
      <point x="299.93" y="46.0" type="line"/>
      <point x="299.93" y="39.8"/>
      <point x="287.395" y="37.2"/>
      <point x="278.735" y="37.2" type="curve" smooth="yes"/>
      <point x="276.09" y="37.2" type="line"/>
      <point x="276.09" y="0.0" type="line"/>
    </contour>
    <contour>
      <point x="233.53500000000003" y="750.0" type="line"/>
      <point x="9.88" y="750.0" type="line"/>
      <point x="9.88" y="712.0" type="line"/>
      <point x="16.48" y="710.0" type="line" smooth="yes"/>
      <point x="28.385000000000005" y="705.2"/>
      <point x="30.305" y="699.6"/>
      <point x="30.305" y="682.6" type="curve" smooth="yes"/>
      <point x="30.305" y="62.8" type="line" smooth="yes"/>
      <point x="30.305" y="41.0"/>
      <point x="21.725" y="37.2"/>
      <point x="10.879999999999999" y="37.2" type="curve" smooth="yes"/>
      <point x="9.880000000000003" y="37.2" type="line"/>
      <point x="9.880000000000003" y="0.0" type="line"/>
      <point x="251.10999999999999" y="0.0" type="line"/>
      <point x="251.10999999999999" y="37.2" type="line"/>
      <point x="250.765" y="37.2" type="line" smooth="yes"/>
      <point x="240.425" y="37.2"/>
      <point x="233.53500000000003" y="40.4"/>
      <point x="233.53500000000003" y="57.6" type="curve" smooth="yes"/>
    </contour>
  </outline>
</glyph>
<glyph name="l" format="2">
  <advance width="262"/>
  <unicode hex="006C"/>
  <outline>
    <contour>
      <point x="233.53500000000003" y="750.0" type="line"/>
      <point x="9.88" y="750.0" type="line"/>
      <point x="9.88" y="712.0" type="line"/>
      <point x="16.48" y="710.0" type="line" smooth="yes"/>
      <point x="28.385000000000005" y="705.2"/>
      <point x="30.305" y="699.6"/>
      <point x="30.305" y="682.6" type="curve" smooth="yes"/>
      <point x="30.305" y="62.8" type="line" smooth="yes"/>
      <point x="30.305" y="41.0"/>
      <point x="21.680000000000003" y="37.2"/>
      <point x="10.73" y="37.2" type="curve" smooth="yes"/>
      <point x="9.880000000000003" y="37.2" type="line"/>
      <point x="9.880000000000003" y="0.0" type="line"/>
      <point x="254.21499999999997" y="0.0" type="line"/>
      <point x="254.21499999999997" y="37.2" type="line"/>
      <point x="253.26" y="37.2" type="line" smooth="yes"/>
      <point x="243.22" y="37.2"/>
      <point x="233.53500000000003" y="41.0"/>
      <point x="233.53500000000003" y="62.8" type="curve" smooth="yes"/>
    </contour>
  </outline>
</glyph>
<glyph name="m" format="2">
  <advance width="765"/>
  <unicode hex="006D"/>
  <outline>
    <contour>
      <point x="9.88" y="0.0" type="line"/>
      <point x="243.565" y="0.0" type="line"/>
      <point x="243.565" y="37.2" type="line"/>
      <point x="241.07" y="37.2" type="line" smooth="yes"/>
      <point x="238.505" y="37.2"/>
      <point x="233.535" y="39.4"/>
      <point x="233.535" y="45.6" type="curve" smooth="yes"/>
      <point x="233.535" y="412.2" type="line"/>
      <point x="222.3" y="414.6" type="line"/>
      <point x="222.3" y="522.8" type="line"/>
      <point x="9.88" y="522.8" type="line"/>
      <point x="9.88" y="484.8" type="line"/>
      <point x="17.630000000000003" y="482.8" type="line" smooth="yes"/>
      <point x="28.385" y="478.0"/>
      <point x="30.305" y="473.2"/>
      <point x="30.305" y="454.6" type="curve" smooth="yes"/>
      <point x="30.305" y="62.8" type="line" smooth="yes"/>
      <point x="30.305" y="41.0"/>
      <point x="21.68" y="37.2"/>
      <point x="10.73" y="37.2" type="curve" smooth="yes"/>
      <point x="9.88" y="37.2" type="line"/>
    </contour>
    <contour>
      <point x="495.16999999999996" y="0.0" type="line"/>
      <point x="495.16999999999996" y="37.2" type="line"/>
      <point x="493.82499999999993" y="37.2" type="line" smooth="yes"/>
      <point x="487.3528125" y="37.2"/>
      <point x="485.14" y="40.2"/>
      <point x="485.14" y="57.6" type="curve" smooth="yes"/>
      <point x="485.14" y="355.8" type="line" smooth="yes"/>
      <point x="485.14" y="471.6"/>
      <point x="433.25" y="532.8"/>
      <point x="354.97999999999996" y="532.8" type="curve" smooth="yes"/>
      <point x="291.60011049723755" y="532.8"/>
      <point x="242.1041053438404" y="486.3834642372913"/>
      <point x="218.09" y="415.0" type="curve"/>
      <point x="229.82" y="361.6" type="line"/>
      <point x="236.825" y="411.6"/>
      <point x="253.065" y="445.4"/>
      <point x="269.27" y="445.4" type="curve" smooth="yes"/>
      <point x="280.185" y="445.4"/>
      <point x="281.91" y="423.8"/>
      <point x="281.91" y="379.6" type="curve" smooth="yes"/>
      <point x="281.91" y="45.6" type="line" smooth="yes"/>
      <point x="281.91" y="39.4"/>
      <point x="271.87" y="37.2"/>
      <point x="264.945" y="37.2" type="curve" smooth="yes"/>
      <point x="263.945" y="37.2" type="line"/>
      <point x="263.945" y="0.0" type="line"/>
    </contour>
    <contour>
      <point x="756.975" y="0.0" type="line"/>
      <point x="756.975" y="37.2" type="line"/>
      <point x="755.02" y="37.2" type="line" smooth="yes"/>
      <point x="744.98" y="37.2"/>
      <point x="735.79" y="41.0"/>
      <point x="735.79" y="62.8" type="curve" smooth="yes"/>
      <point x="735.79" y="355.8" type="line" smooth="yes"/>
      <point x="735.79" y="471.6"/>
      <point x="684.855" y="532.8"/>
      <point x="606.435" y="532.8" type="curve" smooth="yes"/>
      <point x="543.2051104972376" y="532.8"/>
      <point x="493.7091053438403" y="486.18346423729133"/>
      <point x="469.695" y="414.4" type="curve"/>
      <point x="481.42499999999995" y="361.2" type="line"/>
      <point x="488.42999999999995" y="411.2"/>
      <point x="503.76" y="445.4"/>
      <point x="520.725" y="445.4" type="curve" smooth="yes"/>
      <point x="531.64" y="445.4"/>
      <point x="533.365" y="423.8"/>
      <point x="533.365" y="379.6" type="curve" smooth="yes"/>
      <point x="533.365" y="45.6" type="line" smooth="yes"/>
      <point x="533.365" y="39.4"/>
      <point x="528.3651724137931" y="37.2"/>
      <point x="523.635" y="37.2" type="curve" smooth="yes"/>
      <point x="523.335" y="37.2" type="line"/>
      <point x="523.335" y="0.0" type="line"/>
    </contour>
  </outline>
</glyph>
<glyph name="q" format="2">
  <advance width="522"/>
  <unicode hex="0071"/>
  <outline>
    <contour>
      <point x="252" y="-223" type="line"/>
      <point x="514" y="-223" type="line"/>
      <point x="514" y="-186" type="line"/>
      <point x="513" y="-186" type="line" smooth="yes"/>
      <point x="502" y="-186"/>
      <point x="493" y="-180"/>
      <point x="493" y="-158" type="curve" smooth="yes"/>
      <point x="493" y="524" type="line"/>
      <point x="356" y="524" type="line"/>
      <point x="310" y="449" type="line"/>
      <point x="290" y="455" type="line"/>
      <point x="290" y="-177" type="line" smooth="yes"/>
      <point x="290" y="-184"/>
      <point x="268" y="-186"/>
      <point x="252" y="-186" type="curve"/>
      <point x="252" y="-186" type="line"/>
    </contour>
    <contour>
      <point x="182" y="-10.0" type="curve" smooth="yes"/>
      <point x="244" y="-10.0"/>
      <point x="278" y="23"/>
      <point x="306" y="93.0" type="curve"/>
      <point x="306" y="182" type="line"/>
      <point x="291" y="107.0"/>
      <point x="275" y="71.0"/>
      <point x="257" y="71.0" type="curve" smooth="yes"/>
      <point x="234" y="71.0"/>
      <point x="222" y="120"/>
      <point x="222" y="255.0" type="curve" smooth="yes"/>
      <point x="222" y="395"/>
      <point x="234" y="461"/>
      <point x="263" y="461" type="curve" smooth="yes"/>
      <point x="287" y="461"/>
      <point x="299" y="427"/>
      <point x="306" y="365.0" type="curve"/>
      <point x="346" y="400" type="line"/>
      <point x="327" y="484"/>
      <point x="281" y="533"/>
      <point x="205" y="533" type="curve" smooth="yes"/>
      <point x="88" y="533"/>
      <point x="16" y="421"/>
      <point x="16" y="255.0" type="curve" smooth="yes"/>
      <point x="16" y="91"/>
      <point x="79" y="-10.0"/>
    </contour>
  </outline>
</glyph>
<glyph name="z" format="2">
  <advance width="414"/>
  <unicode hex="007A"/>
  <outline>
    <contour>
      <point x="209.20000000000002" y="23.6" type="line"/>
      <point x="397.37" y="455.4" type="line"/>
      <point x="397.37" y="522.8" type="line"/>
      <point x="21.185000000000002" y="522.8" type="line"/>
      <point x="21.185000000000002" y="348.0" type="line"/>
      <point x="56.605" y="348.0" type="line"/>
      <point x="68.865" y="432.6" type="line" smooth="yes"/>
      <point x="73.165" y="470.0"/>
      <point x="88.07" y="477.6"/>
      <point x="132.75" y="477.6" type="curve" smooth="yes"/>
      <point x="246.845" y="477.6" type="line"/>
      <point x="209.78" y="506.0" type="line"/>
      <point x="13.675" y="70.80000000000001" type="line"/>
      <point x="13.675" y="0.0" type="line"/>
      <point x="404.72" y="0.0" type="line"/>
      <point x="404.72" y="191.2" type="line"/>
      <point x="368.39" y="191.2" type="line"/>
      <point x="355.44" y="92.6" type="line" smooth="yes"/>
      <point x="350.185" y="53.6"/>
      <point x="334.82" y="46.0"/>
      <point x="291.29" y="46.0" type="curve" smooth="yes"/>
      <point x="187.85499999999996" y="46.0" type="line"/>
    </contour>
  </outline>
</glyph>
<glyph name="bar" format="2">
  <advance width="236.26"/>
  <unicode hex="007C"/>
  <outline>
    <contour>
      <point x="55.18" y="766.0" type="line"/>
      <point x="55.18" y="-161.6" type="line"/>
      <point x="180.485" y="-161.6" type="line"/>
      <point x="180.485" y="766.0" type="line"/>
    </contour>
  </outline>
</glyph>
<glyph name="degree" format="2">
  <advance width="383.55999999999995"/>
  <unicode hex="00B0"/>
  <outline>
    <contour>
      <point x="248.18" y="531.4" type="curve" smooth="yes"/>
      <point x="248.18" y="471.84465116288"/>
      <point x="226.2082608695652" y="432.2"/>
      <point x="191.77999999999997" y="432.2" type="curve" smooth="yes"/>
      <point x="159.30673913043478" y="432.2"/>
      <point x="135.38" y="471.84465116288"/>
      <point x="135.38" y="531.4" type="curve" smooth="yes"/>
      <point x="135.38" y="592.5720930232"/>
      <point x="159.30673913043478" y="630.6"/>
      <point x="191.77999999999997" y="630.6" type="curve" smooth="yes"/>
      <point x="226.2082608695652" y="630.6"/>
      <point x="248.18" y="592.5720930232"/>
    </contour>
    <contour>
      <point x="28.475" y="531.4" type="curve" smooth="yes"/>
      <point x="28.475" y="414.0"/>
      <point x="101.755" y="333.79999999999995"/>
      <point x="191.77999999999997" y="333.79999999999995" type="curve" smooth="yes"/>
      <point x="282.61" y="333.79999999999995"/>
      <point x="355.89" y="414.0"/>
      <point x="355.89" y="531.4" type="curve" smooth="yes"/>
      <point x="355.89" y="648.8"/>
      <point x="282.61" y="729.0"/>
      <point x="191.77999999999997" y="729.0" type="curve" smooth="yes"/>
      <point x="101.755" y="729.0"/>
      <point x="28.475" y="648.8"/>
    </contour>
  </outline>
</glyph>
<glyph name="cedilla" format="2">
  <advance width="453.0"/>
  <unicode hex="00B8"/>
  <anchor x="224.2" y="34.0" name="_bottom"/>
  <outline>
    <contour>
      <point x="241.485" y="4.0" type="line"/>
      <point x="167.285" y="4.0" type="line"/>
      <point x="142.64" y="-99.8" type="line"/>
      <point x="158.2" y="-99.8" type="line" smooth="yes"/>
      <point x="191.965" y="-99.8"/>
      <point x="202.075" y="-112.4"/>
      <point x="202.075" y="-133.6" type="curve" smooth="yes"/>
      <point x="202.075" y="-154.4"/>
      <point x="195.255" y="-168.4"/>
      <point x="180.925" y="-168.4" type="curve" smooth="yes"/>
      <point x="164.625" y="-168.4"/>
      <point x="146.20106083995594" y="-155.40763958311572"/>
      <point x="125.665" y="-131.4" type="curve"/>
      <point x="85.76" y="-189.0" type="line"/>
      <point x="113.74" y="-219.8"/>
      <point x="148.425" y="-237.6"/>
      <point x="199.405" y="-237.6" type="curve" smooth="yes"/>
      <point x="265.175" y="-237.6"/>
      <point x="309.475" y="-207.2"/>
      <point x="309.475" y="-138.4" type="curve" smooth="yes"/>
      <point x="309.475" y="-81.86"/>
      <point x="271.9651221407373" y="-50.599792835561686"/>
      <point x="205.925" y="-55.8" type="curve"/>
      <point x="185.70698578193827" y="-74.90470554299947"/>
      <point x="210.92811355425383" y="-76.3785061287733"/>
      <point x="213.515" y="-68.4" type="curve"/>
    </contour>
  </outline>
</glyph>
<glyph name="divide" format="2">
  <advance width="422.8"/>
  <unicode hex="00F7"/>
  <outline>
    <contour>
      <point x="300.745" y="131.6" type="curve" smooth="yes"/>
      <point x="300.745" y="182.0"/>
      <point x="268.28" y="217.8"/>
      <point x="211.4" y="217.8" type="curve" smooth="yes"/>
      <point x="154.52" y="217.8"/>
      <point x="122.055" y="182.0"/>
      <point x="122.055" y="131.6" type="curve" smooth="yes"/>
      <point x="122.055" y="79.6"/>
      <point x="154.52" y="44.599999999999994"/>
      <point x="211.4" y="44.599999999999994" type="curve" smooth="yes"/>
      <point x="268.28" y="44.599999999999994"/>
      <point x="300.745" y="79.6"/>
    </contour>
    <contour>
      <point x="300.745" y="550.0" type="curve" smooth="yes"/>
      <point x="300.745" y="601.2"/>
      <point x="268.28" y="637.0"/>
      <point x="211.4" y="637.0" type="curve" smooth="yes"/>
      <point x="154.52" y="637.0"/>
      <point x="122.055" y="601.2"/>
      <point x="122.055" y="550.0" type="curve" smooth="yes"/>
      <point x="122.055" y="498.8"/>
      <point x="154.52" y="463.8"/>
      <point x="211.4" y="463.8" type="curve" smooth="yes"/>
      <point x="268.28" y="463.8"/>
      <point x="300.745" y="498.8"/>
    </contour>
    <component base="minus" xOffset="-52.64"/>
  </outline>
</glyph>
<glyph name="dotlessi" format="2">
  <advance width="262.185"/>
  <unicode hex="0131"/>
  <anchor x="130.3" y="545.2" name="top"/>
  <outline>
    <contour>
      <point x="233.53500000000003" y="514.8" type="line"/>
      <point x="9.88" y="514.8" type="line"/>
      <point x="9.88" y="444.8" type="line"/>
      <point x="14.985000000000001" y="442.8" type="line" smooth="yes"/>
      <point x="27.235000000000007" y="436.4"/>
      <point x="30.305000000000007" y="431.6"/>
      <point x="30.305000000000007" y="413.0" type="curve" smooth="yes"/>
      <point x="30.305000000000007" y="94.80000000000001" type="line" smooth="yes"/>
      <point x="30.305000000000007" y="73.0"/>
      <point x="21.680000000000007" y="66.80000000000001"/>
      <point x="10.730000000000002" y="66.80000000000001" type="curve" smooth="yes"/>
      <point x="9.88" y="66.80000000000001" type="line"/>
      <point x="9.88" y="0.0" type="line"/>
      <point x="254.21499999999997" y="0.0" type="line"/>
      <point x="254.21499999999997" y="66.80000000000001" type="line"/>
      <point x="253.26" y="66.80000000000001" type="line" smooth="yes"/>
      <point x="243.22" y="66.80000000000001"/>
      <point x="233.53500000000003" y="73.0"/>
      <point x="233.53500000000003" y="94.80000000000001" type="curve" smooth="yes"/>
    </contour>
  </outline>
</glyph>
<glyph name="Ldot" format="2">
  <advance width="533.005"/>
  <unicode hex="013F"/>
  <outline>
    <contour>
      <point x="340.62" y="568.0" type="line"/>
      <point x="283.845" y="502.4" type="line"/>
      <point x="270.275" y="547.0" type="line" smooth="yes"/>
      <point x="246.47000000000003" y="547.0"/>
      <point x="234.095" y="541.4"/>
      <point x="234.095" y="518.2" type="curve" smooth="yes"/>
      <point x="236.20999999999998" y="92.4" type="line"/>
      <point x="237.05" y="83.4"/>
      <point x="295.63" y="80.6"/>
      <point x="305.38" y="80.6" type="curve" smooth="yes"/>
      <point x="369.895" y="80.6"/>
      <point x="413.54499999999996" y="86.2"/>
      <point x="416.53499999999997" y="115.0" type="curve" smooth="yes"/>
      <point x="425.62" y="321.2" type="line"/>
      <point x="425.62" y="322.6"/>
      <point x="515.85" y="323.2"/>
      <point x="512.01" y="323.2" type="curve"/>
      <point x="510.975" y="136.0" type="line"/>
      <point x="-15.265" y="142.0" type="line"/>
      <point x="14.825000000000003" y="207.6" type="line"/>
      <point x="23.909999999999997" y="201.6" type="line" smooth="yes"/>
      <point x="45.415" y="201.6"/>
      <point x="60.595" y="207.2"/>
      <point x="60.595" y="230.4" type="curve" smooth="yes"/>
      <point x="55.76499999999999" y="230.4"/>
      <point x="51.535000000000004" y="608.2"/>
      <point x="51.535000000000004" y="602.4" type="curve" smooth="yes"/>
      <point x="51.535000000000004" y="625.6"/>
      <point x="35.665" y="515.6"/>
      <point x="14.16" y="515.6" type="curve" smooth="yes"/>
      <point x="14.16" y="509.8"/>
      <point x="9.260000000000005" y="508.4"/>
      <point x="14.135000000000003" y="508.4" type="curve"/>
      <point x="14.825000000000003" y="574.0" type="line"/>
    </contour>
    <component base="periodcentered" xOffset="299.48" yOffset="63.0"/>
  </outline>
</glyph>
<glyph name="Ohorn" format="2">
  <advance width="630.6800000000001"/>
  <unicode hex="01A0"/>
  <anchor x="298.7" y="742.0" name="top"/>
  <outline>
    <contour>
      <point x="397.67" y="665.6" type="curve"/>
      <point x="559.027738012205" y="650.4079087644"/>
      <point x="637.89" y="704.0"/>
      <point x="637.6949999999999" y="877.0" type="curve"/>
      <point x="503.695" y="877.0" type="line"/>
      <point x="501.78499999999997" y="767.0"/>
      <point x="453.84" y="720.0"/>
      <point x="299.24" y="720.0" type="curve"/>
      <point x="346.045" y="710.4"/>
      <point x="364.435" y="677.6"/>
    </contour>
    <contour>
      <point x="309.475" y="-10.0" type="curve" smooth="yes"/>
      <point x="481.52" y="-10.0"/>
      <point x="598.5699999999999" y="134.2"/>
      <point x="598.5699999999999" y="355.0" type="curve" smooth="yes"/>
      <point x="598.5699999999999" y="529.6"/>
      <point x="532.5799999999999" y="649.8"/>
      <point x="420.325" y="686.2" type="curve"/>
      <point x="391.345" y="712.0"/>
      <point x="352.98" y="720.0"/>
      <point x="309.475" y="720.0" type="curve" smooth="yes"/>
      <point x="136.625" y="720.0"/>
      <point x="19.425" y="575.2"/>
      <point x="19.425" y="355.0" type="curve" smooth="yes"/>
      <point x="19.425" y="134.2"/>
      <point x="136.625" y="-10.0"/>
    </contour>
    <contour>
      <point x="309.475" y="77.2" type="curve" smooth="yes"/>
      <point x="266.03499999999997" y="77.2"/>
      <point x="242.92999999999998" y="173.8"/>
      <point x="242.92999999999998" y="355.0" type="curve" smooth="yes"/>
      <point x="242.92999999999998" y="536.2"/>
      <point x="266.03499999999997" y="632.8"/>
      <point x="309.475" y="632.8" type="curve" smooth="yes"/>
      <point x="351.81" y="632.8"/>
      <point x="375.065" y="536.2"/>
      <point x="375.065" y="355.0" type="curve" smooth="yes"/>
      <point x="375.065" y="173.8"/>
      <point x="351.81" y="77.2"/>
    </contour>
  </outline>
</glyph>
<glyph name="Uhorn" format="2">
  <advance width="629.805"/>
  <unicode hex="01AF"/>
  <anchor x="314.8" y="663.0" name="top"/>
  <outline>
    <contour>
      <point x="394.255" y="710.0" type="line"/>
      <point x="394.255" y="638.4" type="line"/>
      <point x="399.235" y="638.4" type="line" smooth="yes"/>
      <point x="410.645" y="638.4"/>
      <point x="428.24" y="632.2"/>
      <point x="428.24" y="617.4" type="curve" smooth="yes"/>
      <point x="428.24" y="273.6" type="line" smooth="yes"/>
      <point x="428.24" y="144.8"/>
      <point x="397.35" y="89.60000000000001"/>
      <point x="345.32" y="89.60000000000001" type="curve" smooth="yes"/>
      <point x="286.46" y="89.60000000000001"/>
      <point x="264.885" y="139.4"/>
      <point x="264.885" y="272.2" type="curve" smooth="yes"/>
      <point x="264.885" y="628.4" type="line" smooth="yes"/>
      <point x="264.885" y="635.4"/>
      <point x="281.16999999999996" y="638.4"/>
      <point x="293.545" y="638.4" type="curve" smooth="yes"/>
      <point x="300.445" y="638.4" type="line"/>
      <point x="300.445" y="710.0" type="line"/>
      <point x="13.720000000000002" y="710.0" type="line"/>
      <point x="13.720000000000002" y="638.4" type="line"/>
      <point x="22.115000000000002" y="638.4" type="line" smooth="yes"/>
      <point x="38.895" y="638.4"/>
      <point x="49.625" y="631.4"/>
      <point x="49.625" y="602.4" type="curve" smooth="yes"/>
      <point x="49.625" y="272.0" type="line" smooth="yes"/>
      <point x="49.625" y="75.8"/>
      <point x="141.755" y="-10.0"/>
      <point x="290.35" y="-10.0" type="curve" smooth="yes"/>
      <point x="415.175" y="-10.0"/>
      <point x="509.995" y="73.0"/>
      <point x="509.995" y="273.6" type="curve" smooth="yes"/>
      <point x="509.995" y="601.4" type="line" smooth="yes"/>
      <point x="509.995" y="629.6083333333399"/>
      <point x="515.055" y="639.4"/>
      <point x="530.145" y="644.8" type="curve" smooth="yes"/>
      <point x="605.805" y="662.6"/>
      <point x="663.455" y="729.0"/>
      <point x="663.4549999999999" y="877.0" type="curve"/>
      <point x="526.925" y="877.0" type="line"/>
      <point x="524.28" y="741.98886227542"/>
      <point x="519.255" y="710.4"/>
      <point x="420.49" y="710.2" type="curve" smooth="yes"/>
    </contour>
  </outline>
</glyph>
<glyph name="dotaccent" format="2">
  <advance width="377.605"/>
  <unicode hex="02D9"/>
  <anchor x="188.4" y="526.0" name="_top"/>
  <outline>
    <contour>
      <point x="186.905" y="573.2" type="curve" smooth="yes"/>
      <point x="252.02999999999997" y="573.2"/>
      <point x="287.945" y="606.6"/>
      <point x="287.945" y="663.0" type="curve" smooth="yes"/>
      <point x="287.945" y="719.2"/>
      <point x="252.02999999999997" y="752.6"/>
      <point x="186.905" y="752.6" type="curve" smooth="yes"/>
      <point x="122.825" y="752.6"/>
      <point x="86.56500000000003" y="719.2"/>
      <point x="86.56500000000003" y="663.0" type="curve" smooth="yes"/>
      <point x="86.56500000000003" y="605.8"/>
      <point x="122.825" y="573.2"/>
    </contour>
  </outline>
</glyph>
<glyph name="minute" format="2">
  <advance width="196.265"/>
  <unicode hex="2032"/>
  <outline>
    <contour>
      <point x="179.82999999999998" y="710.0" type="line"/>
      <point x="170.135" y="608.2"/>
      <point x="145.18" y="579.0"/>
      <point x="130.69" y="446.8" type="curve"/>
      <point x="31.835000000000004" y="446.8" type="line"/>
      <point x="48.084999999999994" y="596.8"/>
      <point x="32.37500000000001" y="629.8"/>
      <point x="44.370000000000005" y="710.0" type="curve"/>
    </contour>
  </outline>
</glyph>
<glyph name="guilsinglleft" format="2">
  <advance width="264.6"/>
  <unicode hex="2039"/>
  <outline>
    <contour>
      <point x="167.765" y="217.0" type="line"/>
      <point x="243.38" y="463.0" type="line"/>
      <point x="152.68" y="463.0" type="line"/>
      <point x="21.920000000000005" y="289.0" type="line"/>
      <point x="21.920000000000005" y="241.0" type="line"/>
      <point x="152.68" y="67.0" type="line"/>
      <point x="243.38" y="67.0" type="line"/>
      <point x="168.765" y="309.0" type="line"/>
    </contour>
  </outline>
</glyph>
<glyph name="peso" format="2">
  <advance width="422.8"/>
  <unicode hex="20B1"/>
  <outline>
    <contour>
      <point x="7.625" y="0.0" type="line"/>
      <point x="212.585" y="0.0" type="line"/>
      <point x="212.585" y="71.6" type="line"/>
      <point x="209.365" y="71.6" type="line" smooth="yes"/>
      <point x="193.58499999999998" y="71.6"/>
      <point x="188.375" y="73.80000000000001"/>
      <point x="188.375" y="84.0" type="curve" smooth="yes"/>
      <point x="188.375" y="210.2" type="line"/>
      <point x="196.54" y="210.2" type="line" smooth="yes"/>
      <point x="330.52" y="210.2"/>
      <point x="396.59" y="300.8"/>
      <point x="396.59" y="466.8" type="curve" smooth="yes"/>
      <point x="396.59" y="628.2"/>
      <point x="336.888145161435" y="710.0"/>
      <point x="211.87" y="710.0" type="curve" smooth="yes"/>
      <point x="7.625" y="710.0" type="line"/>
      <point x="7.625" y="638.4" type="line"/>
      <point x="15.215" y="638.4" type="line" smooth="yes"/>
      <point x="23.954999999995497" y="638.4"/>
      <point x="29.349999999999994" y="631.4"/>
      <point x="29.349999999999994" y="602.4" type="curve" smooth="yes"/>
      <point x="29.349999999999994" y="107.6" type="line" smooth="yes"/>
      <point x="29.349999999999994" y="78.6"/>
      <point x="23.8049999999955" y="71.6"/>
      <point x="15.215" y="71.6" type="curve" smooth="yes"/>
      <point x="7.625" y="71.6" type="line"/>
    </contour>
    <contour>
      <point x="201.14" y="628.6" type="line" smooth="yes"/>
      <point x="222.855" y="628.6"/>
      <point x="238.06" y="600.6"/>
      <point x="238.06" y="462.6" type="curve" smooth="yes"/>
      <point x="238.06" y="326.0"/>
      <point x="222.855" y="291.4"/>
      <point x="202.13" y="291.4" type="curve" smooth="yes"/>
      <point x="188.375" y="291.4" type="line"/>
      <point x="188.375" y="628.6" type="line"/>
    </contour>
    <contour>
      <point x="7.625" y="503.0" type="line"/>
      <point x="7.625" y="427.8" type="line"/>
      <point x="151.85000000000002" y="427.8" type="line"/>
      <point x="163.465" y="435.8" type="line"/>
      <point x="304.795" y="435.8" type="line"/>
      <point x="332.65999999999997" y="427.8" type="line"/>
      <point x="422.605" y="427.8" type="line"/>
      <point x="422.605" y="503.0" type="line"/>
      <point x="343.01" y="503.0" type="line"/>
      <point x="317.905" y="495.0" type="line"/>
      <point x="144.95" y="495.0" type="line"/>
      <point x="141.57999999999998" y="503.0" type="line"/>
    </contour>
  </outline>
</glyph>
<glyph name="guarani" format="2">
  <advance width="422.8"/>
  <unicode hex="20B2"/>
  <outline>
    <contour>
      <point x="295.525" y="361.0" type="line"/>
      <point x="295.525" y="289.4" type="line" smooth="yes"/>
      <point x="294.985" y="289.4" type="line"/>
      <point x="292.72" y="289.4"/>
      <point x="290.845" y="282.4"/>
      <point x="290.845" y="253.4" type="curve"/>
      <point x="403.95" y="256.6" type="line"/>
      <point x="403.95" y="282.4"/>
      <point x="407.93" y="289.4"/>
      <point x="415.705" y="289.4" type="curve" smooth="yes"/>
      <point x="419.005" y="289.4" type="line"/>
      <point x="419.005" y="361.0" type="line"/>
    </contour>
    <contour>
      <point x="191.07999999999998" y="790.0" type="line"/>
      <point x="191.07999999999998" y="665.8" type="line"/>
      <point x="206.14499999999998" y="651.8" type="line"/>
      <point x="206.14499999999998" y="58.8" type="line"/>
      <point x="191.07999999999998" y="37.4" type="line"/>
      <point x="191.07999999999998" y="-120.0" type="line"/>
      <point x="282.045" y="-120.0" type="line"/>
      <point x="282.045" y="36.4" type="line"/>
      <point x="266.98" y="60.0" type="line"/>
      <point x="266.98" y="657.0" type="line"/>
      <point x="282.045" y="671.8" type="line"/>
      <point x="282.045" y="790.0" type="line"/>
    </contour>
    <contour>
      <point x="239.875" y="-6.0" type="curve" smooth="yes"/>
      <point x="320.78999999999996" y="-6.0"/>
      <point x="376.855" y="37.199999999999996"/>
      <point x="403.95" y="79.0" type="curve"/>
      <point x="403.95" y="299.4" type="line"/>
      <point x="290.845" y="325.4" type="line"/>
      <point x="290.845" y="98.4" type="line"/>
      <point x="282.185" y="85.8"/>
      <point x="266.315" y="72.0"/>
      <point x="250.10999999999999" y="72.0" type="curve" smooth="yes"/>
      <point x="193.135" y="72.0"/>
      <point x="173.48" y="171.1780487804878"/>
      <point x="173.48" y="355.0" type="curve" smooth="yes"/>
      <point x="173.48" y="524.9926829268293"/>
      <point x="183.28" y="638.0"/>
      <point x="254.17" y="638.0" type="curve" smooth="yes"/>
      <point x="288.395" y="638.0"/>
      <point x="306.785" y="619.4"/>
      <point x="321.85" y="588.4" type="curve"/>
      <point x="357.04" y="592.0"/>
      <point x="372.71500000000003" y="636.4"/>
      <point x="300.62" y="632.8" type="curve"/>
      <point x="300.62" y="519.6" type="line"/>
      <point x="407.25" y="519.6" type="line"/>
      <point x="407.25" y="662.0" type="line"/>
      <point x="395.71500000000003" y="679.8"/>
      <point x="343.86" y="716.0"/>
      <point x="242.485" y="716.0" type="curve" smooth="yes"/>
      <point x="105.975" y="716.0"/>
      <point x="6.015000000000001" y="566.6"/>
      <point x="6.015000000000001" y="355.0" type="curve" smooth="yes"/>
      <point x="6.015000000000001" y="137.0"/>
      <point x="100.685" y="-6.0"/>
    </contour>
  </outline>
</glyph>
<glyph name="cedi" format="2">
  <advance width="422.8"/>
  <unicode hex="20B5"/>
  <outline>
    <contour>
      <point x="256.17" y="716.0" type="curve" smooth="yes"/>
      <point x="119.61500000000001" y="716.0"/>
      <point x="8.465" y="573.8"/>
      <point x="8.465" y="355.0" type="curve" smooth="yes"/>
      <point x="8.465" y="137.6"/>
      <point x="111.61930620765014" y="-6.0"/>
      <point x="253.905" y="-6.0" type="curve"/>
      <point x="354.672500000075" y="-6.0"/>
      <point x="404.75932959337" y="88.01561721243999"/>
      <point x="424.11" y="227.4" type="curve"/>
      <point x="355.11" y="257.4" type="line"/>
      <point x="341.05125806264" y="150.22220251832"/>
      <point x="313.455" y="80.4"/>
      <point x="274.72" y="80.4" type="curve" smooth="yes"/>
      <point x="200.20187499999997" y="80.4"/>
      <point x="175.93" y="171.0"/>
      <point x="175.93" y="355.0" type="curve" smooth="yes"/>
      <point x="175.93" y="532.4"/>
      <point x="191.445" y="638.0"/>
      <point x="270.89" y="638.0" type="curve" smooth="yes"/>
      <point x="309.095" y="638.0"/>
      <point x="330.775" y="614.6"/>
      <point x="347.07" y="582.0" type="curve"/>
      <point x="373.13" y="591.4"/>
      <point x="391.955" y="638.0"/>
      <point x="320.01" y="633.2" type="curve"/>
      <point x="320.01" y="519.6" type="line"/>
      <point x="424.53499999999997" y="519.6" type="line"/>
      <point x="424.53499999999997" y="663.2" type="line"/>
      <point x="408.78" y="678.6"/>
      <point x="354.13" y="716.0"/>
    </contour>
    <contour>
      <point x="209.56" y="790.0" type="line"/>
      <point x="209.56" y="674.0" type="line"/>
      <point x="223.13" y="665.0" type="line"/>
      <point x="223.13" y="45.8" type="line"/>
      <point x="209.56" y="31.8" type="line"/>
      <point x="209.56" y="-120.0" type="line"/>
      <point x="300.63" y="-120.0" type="line"/>
      <point x="300.63" y="30.8" type="line"/>
      <point x="287.06" y="45.2" type="line"/>
      <point x="287.06" y="669.6" type="line"/>
      <point x="300.63" y="680.8" type="line"/>
      <point x="300.63" y="790.0" type="line"/>
    </contour>
  </outline>
</glyph>
<glyph name="baht.proportional" format="2">
  <advance width="579.3399999999999"/>
  <outline>
    <contour>
      <point x="254.445" y="790.0" type="line"/>
      <point x="254.445" y="678.0" type="line"/>
      <point x="269.96999999999997" y="662.0" type="line"/>
      <point x="269.96999999999997" y="44.2" type="line"/>
      <point x="254.445" y="34.2" type="line"/>
      <point x="254.445" y="-110.0" type="line"/>
      <point x="346.32000000000005" y="-110.0" type="line"/>
      <point x="346.32000000000005" y="36.0" type="line"/>
      <point x="330.45" y="48.0" type="line"/>
      <point x="330.45" y="664.0" type="line"/>
      <point x="346.32000000000005" y="675.0" type="line"/>
      <point x="346.32000000000005" y="790.0" type="line"/>
    </contour>
    <contour>
      <point x="350.62" y="708.0" type="curve" smooth="yes"/>
      <point x="28.325" y="708.0" type="line"/>
      <point x="28.325" y="636.4" type="line"/>
      <point x="35.375" y="636.4" type="line" smooth="yes"/>
      <point x="53.845" y="636.4"/>
      <point x="65.955" y="629.4"/>
      <point x="65.955" y="600.4" type="curve" smooth="yes"/>
      <point x="65.955" y="109.6" type="line" smooth="yes"/>
      <point x="65.955" y="80.6"/>
      <point x="53.845" y="73.6"/>
      <point x="35.375" y="73.6" type="curve" smooth="yes"/>
      <point x="28.325" y="73.6" type="line"/>
      <point x="28.325" y="2.0" type="line"/>
      <point x="344.145" y="2.0" type="line" smooth="yes"/>
      <point x="482.0" y="2.0"/>
      <point x="553.855" y="77.4"/>
      <point x="553.855" y="202.2" type="curve" smooth="yes"/>
      <point x="553.855" y="318.0"/>
      <point x="474.40999999999997" y="374.0"/>
      <point x="387.5" y="380.4" type="curve"/>
      <point x="394.63" y="371.0" type="line"/>
      <point x="472.34000000000003" y="376.6"/>
      <point x="543.435" y="426.8"/>
      <point x="543.435" y="538.8" type="curve" smooth="yes"/>
      <point x="543.435" y="643.8"/>
      <point x="478.93000000000006" y="708.0"/>
    </contour>
    <contour>
      <point x="307.84" y="405.6" type="curve"/>
      <point x="233.45499999999998" y="405.6" type="line"/>
      <point x="233.45499999999998" y="632.2" type="line"/>
      <point x="316.545" y="632.2" type="line"/>
      <point x="349.715" y="632.2"/>
      <point x="375.085" y="594.2"/>
      <point x="375.085" y="525.0" type="curve" smooth="yes"/>
      <point x="375.085" y="448.0"/>
      <point x="353.82" y="405.6"/>
    </contour>
    <contour>
      <point x="298.675" y="335.2" type="line"/>
      <point x="358.34000000000003" y="335.2"/>
      <point x="385.355" y="288.8"/>
      <point x="385.355" y="211.4" type="curve" smooth="yes"/>
      <point x="385.355" y="120.6"/>
      <point x="353.89" y="77.6"/>
      <point x="306.77" y="77.6" type="curve"/>
      <point x="233.45499999999998" y="77.6" type="line"/>
      <point x="233.45499999999998" y="335.2" type="line"/>
    </contour>
  </outline>
</glyph>
<glyph name="caron.alt" format="2">
  <advance width="377.5"/>
  <anchor x="66.3" y="574.0" name="_right"/>
  <outline>
    <contour>
      <point x="160.13" y="527.6" type="line"/>
      <point x="75.5" y="527.6" type="line"/>
      <point x="75.5" y="537.6" type="line"/>
      <point x="87.0" y="710.0" type="line"/>
      <point x="222.07" y="710.0" type="line"/>
    </contour>
  </outline>
</glyph>
<glyph name="cent.alt" format="2">
  <advance width="422.8"/>
  <outline>
    <contour>
      <point x="277.675" y="71.2" type="curve" smooth="yes"/>
      <point x="240.46999999999997" y="71.2"/>
      <point x="219.125" y="138.6"/>
      <point x="219.125" y="255.8" type="curve" smooth="yes"/>
      <point x="219.125" y="367.8"/>
      <point x="231.23499999999999" y="442.4"/>
      <point x="257.47" y="442.4" type="curve" smooth="yes"/>
      <point x="266.66" y="442.4"/>
      <point x="273.585" y="427.0"/>
      <point x="277.415" y="398.2" type="curve"/>
      <point x="298.035" y="415.0"/>
      <point x="300.185" y="465.0"/>
      <point x="266.075" y="466.4" type="curve"/>
      <point x="266.075" y="334.6" type="line"/>
      <point x="404.26" y="334.6" type="line"/>
      <point x="404.26" y="463.8" type="line"/>
      <point x="389.735" y="483.8"/>
      <point x="342.48" y="524.8"/>
      <point x="239.76" y="524.8" type="curve" smooth="yes"/>
      <point x="105.275" y="524.8"/>
      <point x="11.995000000000005" y="424.0"/>
      <point x="11.995000000000005" y="255.8" type="curve" smooth="yes"/>
      <point x="11.995000000000005" y="85.6"/>
      <point x="109.875" y="-13.6"/>
      <point x="238.15" y="-13.6" type="curve" smooth="yes"/>
      <point x="335.89" y="-13.6"/>
      <point x="381.065" y="45.2"/>
      <point x="413.955" y="131.0" type="curve"/>
      <point x="353.03999999999996" y="173.6" type="line"/>
      <point x="336.57" y="126.4"/>
      <point x="314.73" y="71.2"/>
    </contour>
    <contour>
      <point x="282.885" y="494.2" type="line"/>
      <point x="282.885" y="623.0" type="line"/>
      <point x="200.2" y="623.0" type="line"/>
      <point x="200.2" y="494.4" type="line"/>
    </contour>
    <contour>
      <point x="200.2" y="40.6" type="line"/>
      <point x="200.2" y="-126.0" type="line"/>
      <point x="282.885" y="-126.0" type="line"/>
      <point x="282.885" y="40.400000000000006" type="line"/>
    </contour>
  </outline>
</glyph>
<glyph name="circumflex_acute.uc" format="2">
  <advance width="384.595"/>
  <anchor x="184.8" y="749.0" name="_top"/>
  <outline>
    <contour>
      <point x="361.03" y="970.8" type="curve" smooth="yes"/>
      <point x="332.705" y="889.8" type="line"/>
      <point x="332.705" y="864.8" type="line"/>
      <point x="382.88" y="864.8" type="line"/>
      <point x="430.56" y="892.0" type="line" smooth="yes"/>
      <point x="478.77068282296796" y="913.0039461314029"/>
      <point x="503.0" y="935.8236363636364"/>
      <point x="503.0" y="982.6" type="curve" smooth="yes"/>
      <point x="503.0" y="1017.2015384615385"/>
      <point x="480.38" y="1046.0"/>
      <point x="444.81" y="1046.0" type="curve" smooth="yes"/>
      <point x="404.605" y="1046.0"/>
      <point x="382.87" y="1019.0"/>
    </contour>
    <component base="circumflex.uc" xOffset="-87.185"/>
  </outline>
</glyph>
<glyph name="circumflex_grave" format="2">
  <advance width="385.4"/>
  <anchor x="184.8" y="564.0" name="_top"/>
  <outline>
    <contour>
      <point x="431.29499999999996" y="807.8" type="curve" smooth="yes"/>
      <point x="432.56999999999994" y="815.0"/>
      <point x="458.595" y="743.8"/>
      <point x="461.4" y="743.8" type="curve"/>
      <point x="464.205" y="743.8"/>
      <point x="466.125" y="714.8"/>
      <point x="466.125" y="710.4" type="curve"/>
      <point x="466.125" y="706.8"/>
      <point x="403.325" y="702.4"/>
      <point x="401.105" y="698.6" type="curve"/>
      <point x="328.83" y="715.6" type="line" smooth="yes"/>
      <point x="280.875" y="742.0"/>
      <point x="257.10499999999996" y="770.8"/>
      <point x="257.10499999999996" y="806.8" type="curve" smooth="yes"/>
      <point x="257.10499999999996" y="840.4"/>
      <point x="286.545" y="868.6"/>
      <point x="330.705" y="868.6" type="curve" smooth="yes"/>
      <point x="385.09999999999997" y="868.6"/>
      <point x="413.92999999999995" y="860.6"/>
    </contour>
    <component base="circumflex" xOffset="-77.595"/>
  </outline>
</glyph>
<glyph name="four.old" format="2">
  <advance width="422.8"/>
  <outline>
    <contour>
      <point x="14.870000000000001" y="10.199999999999996" type="line"/>
      <point x="421.12" y="10.199999999999996" type="line"/>
      <point x="421.12" y="147.6" type="line"/>
      <point x="88.965" y="147.6" type="line"/>
      <point x="59.825" y="73.4" type="line"/>
      <point x="223.845" y="471.6" type="line"/>
      <point x="233.46" y="548.0" type="line"/>
      <point x="180.60500000000002" y="548.0" type="line"/>
      <point x="14.870000000000001" y="145.6" type="line"/>
    </contour>
    <contour>
      <point x="381.235" y="-145.4" type="line"/>
      <point x="381.235" y="548.0" type="line"/>
      <point x="206.285" y="548.0" type="line"/>
      <point x="194.22" y="462.6" type="line"/>
      <point x="194.22" y="-145.4" type="line"/>
    </contour>
  </outline>
</glyph>
<glyph name="plus.sup" format="2">
  <advance width="310.28"/>
  <outline>
    <contour>
      <point x="111.21" y="676.8" type="line"/>
      <point x="111.21" y="366.8" type="line"/>
      <point x="200.17499999999998" y="366.8" type="line"/>
      <point x="200.17499999999998" y="676.8" type="line"/>
    </contour>
    <contour>
      <point x="268.74" y="563.4" type="line"/>
      <point x="42.345" y="563.4" type="line"/>
      <point x="42.345" y="480.2" type="line"/>
      <point x="268.74" y="480.2" type="line"/>
    </contour>
  </outline>
</glyph>
<glyph name="sterling.altprop" format="2">
  <advance width="475.85"/>
  <outline>
    <contour>
      <point x="19.08" y="403.8" type="line"/>
      <point x="19.08" y="307.8" type="line"/>
      <point x="391.77" y="307.8" type="line"/>
      <point x="391.77" y="403.8" type="line"/>
    </contour>
    <contour>
      <point x="19.62" y="0.0" type="line"/>
      <point x="457.76" y="0.0" type="line"/>
      <point x="457.76" y="248.8" type="line"/>
      <point x="382.21500000000003" y="248.8" type="line"/>
      <point x="376.5" y="186.20000000000002" type="line" smooth="yes"/>
      <point x="372.095" y="148.4"/>
      <point x="351.98" y="140.0"/>
      <point x="296.065" y="140.0" type="curve" smooth="yes"/>
      <point x="196.17" y="140.0" type="line"/>
      <point x="126.64" y="93.00000000000001" type="line"/>
      <point x="236.95" y="125.2"/>
      <point x="275.27" y="188.0"/>
      <point x="275.27" y="275.0" type="curve" smooth="yes"/>
      <point x="275.27" y="379.0"/>
      <point x="238.4" y="456.2"/>
      <point x="238.4" y="541.8" type="curve" smooth="yes"/>
      <point x="238.4" y="601.2154716981"/>
      <point x="250.920290697665" y="634.0"/>
      <point x="275.87" y="634.0" type="curve" smooth="yes"/>
      <point x="290.148283582105" y="634.0"/>
      <point x="301.320636842725" y="621.62303520966"/>
      <point x="309.075" y="596.8" type="curve"/>
      <point x="334.41812894986" y="606.60511586202"/>
      <point x="335.75526097246" y="636.00002485452"/>
      <point x="300.38" y="636.4" type="curve"/>
      <point x="300.38" y="521.4" type="line"/>
      <point x="442.58" y="521.4" type="line"/>
      <point x="442.58" y="660.8" type="line"/>
      <point x="408.549083517535" y="692.79472436662"/>
      <point x="354.50166666667496" y="720.0"/>
      <point x="263.485" y="720.0" type="curve" smooth="yes"/>
      <point x="121.29222007721" y="720.0"/>
      <point x="43.30000000000001" y="633.6113846154"/>
      <point x="43.30000000000001" y="527.8" type="curve" smooth="yes"/>
      <point x="43.30000000000001" y="400.2"/>
      <point x="118.5" y="344.0"/>
      <point x="118.5" y="238.2" type="curve" smooth="yes"/>
      <point x="118.5" y="174.4"/>
      <point x="85.24" y="134.8"/>
      <point x="19.62" y="113.2" type="curve"/>
    </contour>
  </outline>
</glyph>
<glyph name="won.proportional" format="2">
  <advance width="754.31"/>
  <outline>
    <contour>
      <point x="18.055" y="710.0" type="line"/>
      <point x="18.055" y="638.4" type="line"/>
      <point x="23.955" y="638.4" type="line" smooth="yes"/>
      <point x="39.515" y="638.4"/>
      <point x="51.625" y="632.8"/>
      <point x="54.685" y="609.4" type="curve" smooth="yes"/>
      <point x="131.405" y="0.0" type="line"/>
      <point x="341.84499999999997" y="0.0" type="line"/>
      <point x="397.05" y="626.2" type="line"/>
      <point x="378.615" y="642.2" type="line"/>
      <point x="431.6" y="0.0" type="line"/>
      <point x="629.965" y="0.0" type="line"/>
      <point x="701.9350000000001" y="589.4" type="line" smooth="yes"/>
      <point x="705.845" y="626.0"/>
      <point x="714.23" y="638.4"/>
      <point x="731.7" y="638.4" type="curve" smooth="yes"/>
      <point x="735.345" y="638.4" type="line"/>
      <point x="735.345" y="710.0" type="line"/>
      <point x="603.135" y="710.0" type="line"/>
      <point x="603.135" y="638.4" type="line"/>
      <point x="610.37" y="638.4" type="line" smooth="yes"/>
      <point x="618.145" y="638.4"/>
      <point x="632.785" y="630.2"/>
      <point x="632.785" y="619.0" type="curve"/>
      <point x="578.03" y="96.2" type="line"/>
      <point x="596.12" y="114.60000000000001" type="line"/>
      <point x="548.265" y="710.0" type="line"/>
      <point x="347.185" y="710.0" type="line"/>
      <point x="291.36" y="84.0" type="line"/>
      <point x="309.3" y="94.4" type="line"/>
      <point x="261.78999999999996" y="628.4" type="line"/>
      <point x="261.78999999999996" y="635.4"/>
      <point x="275.42999999999995" y="638.4"/>
      <point x="285.62" y="638.4" type="curve" smooth="yes"/>
      <point x="293.89" y="638.4" type="line"/>
      <point x="293.89" y="710.0" type="line"/>
    </contour>
    <contour>
      <point x="18.055" y="475.8" type="line"/>
      <point x="18.055" y="403.8" type="line"/>
      <point x="213.605" y="403.8" type="line"/>
      <point x="233.88" y="403.8" type="line"/>
      <point x="337.95" y="403.8" type="line"/>
      <point x="354.325" y="475.8" type="line"/>
    </contour>
    <contour>
      <point x="473.435" y="403.8" type="line"/>
      <point x="646.9399999999999" y="403.8" type="line"/>
      <point x="653.99" y="403.8" type="line" smooth="yes"/>
      <point x="735.345" y="403.8" type="line"/>
      <point x="735.345" y="475.8" type="line"/>
      <point x="463.13" y="475.8" type="line"/>
    </contour>
    <contour>
      <point x="329.645" y="231.0" type="line"/>
      <point x="511.11" y="231.0" type="line"/>
      <point x="504.255" y="303.0" type="line"/>
      <point x="341.1" y="303.0" type="line"/>
    </contour>
    <contour>
      <point x="643.1899999999999" y="231.0" type="line"/>
      <point x="735.345" y="231.0" type="line"/>
      <point x="735.345" y="303.0" type="line"/>
      <point x="649.505" y="303.0" type="line"/>
    </contour>
    <contour>
      <point x="121.36500000000001" y="303.0" type="line"/>
      <point x="18.055" y="303.0" type="line"/>
      <point x="18.055" y="231.0" type="line"/>
      <point x="127.72500000000001" y="231.0" type="line"/>
    </contour>
  </outline>
</glyph>
<glyph name="zero.old" format="2">
  <advance width="422.8"/>
  <outline>
    <contour>
      <point x="211.4" y="-11.2" type="curve" smooth="yes"/>
      <point x="331.364981617505" y="-11.2"/>
      <point x="417.21000000000004" y="98.6"/>
      <point x="417.21000000000004" y="273.0" type="curve" smooth="yes"/>
      <point x="417.21000000000004" y="448.2"/>
      <point x="331.364981617505" y="558.0"/>
      <point x="211.4" y="558.0" type="curve" smooth="yes"/>
      <point x="91.390018382495" y="558.0"/>
      <point x="5.590000000000003" y="448.2"/>
      <point x="5.590000000000003" y="273.0" type="curve" smooth="yes"/>
      <point x="5.590000000000003" y="98.6"/>
      <point x="91.390018382495" y="-11.2"/>
    </contour>
    <contour>
      <point x="219.68" y="70.8" type="curve" smooth="yes"/>
      <point x="196.98209271523" y="70.8"/>
      <point x="194.85999999999999" y="116.0"/>
      <point x="194.85999999999999" y="273.0" type="curve" smooth="yes"/>
      <point x="194.85999999999999" y="430.8"/>
      <point x="195.55609271523" y="476.0"/>
      <point x="211.4" y="476.0" type="curve" smooth="yes"/>
      <point x="227.24390728477002" y="476.0"/>
      <point x="227.94" y="430.8"/>
      <point x="227.94" y="273.0" type="curve" smooth="yes"/>
      <point x="227.94" y="116.0"/>
      <point x="229.61290728477002" y="70.8"/>
    </contour>
  </outline>
</glyph>
